<?xml version="1.0" standalone="no"?>
<!DOCTYPE svg PUBLIC "-//W3C//DTD SVG 20010904//EN"
 "http://www.w3.org/TR/2001/REC-SVG-20010904/DTD/svg10.dtd">
<svg version="1.0" xmlns="http://www.w3.org/2000/svg"
 width="1233.000000pt" height="865.000000pt" viewBox="0 0 1233.000000 865.000000"
 preserveAspectRatio="xMidYMid meet">

<g transform="translate(0.000000,865.000000) scale(0.100000,-0.100000)"
fill="#FF662B" stroke="none">
<path d="M6906 8388 c-44 -84 -127 -245 -186 -358 -257 -493 -466 -896 -472
-912 -6 -15 2 -20 45 -32 60 -17 251 -69 1692 -461 578 -158 1165 -318 1305
-356 140 -39 314 -86 385 -105 72 -20 202 -55 290 -79 88 -25 277 -76 420
-115 143 -39 267 -73 277 -76 13 -4 43 48 149 253 214 418 476 927 556 1081
41 79 72 146 69 149 -2 3 -218 60 -478 128 -855 223 -1854 484 -2228 582 -74
19 -304 79 -510 133 -206 54 -567 148 -802 209 -234 61 -428 111 -430 111 -2
0 -39 -69 -82 -152z"/>
<path d="M4370 8315 c-448 -119 -1408 -372 -2675 -706 -418 -111 -843 -223
-945 -250 -102 -27 -249 -66 -327 -86 -79 -20 -143 -39 -143 -42 0 -3 296
-302 658 -664 l658 -658 270 71 c148 39 343 91 434 115 91 24 311 83 490 130
179 48 433 115 565 150 228 60 634 168 1440 381 198 53 419 111 490 130 130
34 223 59 579 154 104 27 192 52 194 55 3 3 -12 24 -34 48 -324 341 -679 714
-759 797 -55 58 -146 152 -200 210 -55 58 -138 144 -185 191 l-85 86 -425
-112z"/>
<path d="M5765 6910 c-181 -48 -469 -125 -640 -170 -170 -45 -488 -129 -705
-186 -217 -58 -546 -145 -730 -194 -184 -49 -567 -150 -850 -225 -283 -75
-537 -142 -565 -150 -27 -8 -147 -39 -265 -70 -192 -51 -263 -75 -220 -75 8 0
75 -20 150 -44 74 -24 221 -71 325 -104 168 -54 696 -222 3205 -1023 343 -110
630 -197 637 -195 10 4 12 255 13 1225 0 1133 -2 1302 -19 1300 -3 0 -154 -40
-336 -89z"/>
<path d="M6220 5736 c0 -908 3 -1266 11 -1266 10 0 465 143 1179 370 124 40
259 82 300 95 41 13 269 85 505 160 237 75 471 150 520 165 121 38 200 62 995
315 377 119 707 224 734 232 27 8 45 18 40 22 -5 5 -616 173 -1359 375 -2128
580 -2889 787 -2907 792 -17 5 -18 -60 -18 -1260z"/>
<path d="M1430 5682 c-86 -64 -398 -297 -693 -517 -329 -244 -532 -402 -525
-406 7 -4 121 -41 253 -84 244 -78 1127 -362 2455 -790 1999 -644 1911 -616
1928 -603 71 58 1212 1082 1212 1088 0 3 -26 14 -57 24 -32 10 -175 55 -318
101 -143 46 -735 235 -1315 420 -580 185 -1441 460 -1913 611 -472 151 -861
274 -865 273 -4 0 -77 -53 -162 -117z"/>
<path d="M10325 5659 c-187 -60 -410 -132 -495 -158 -85 -27 -463 -147 -840
-266 -1258 -398 -1686 -534 -2197 -695 -279 -89 -509 -163 -511 -165 -10 -9
-48 25 1036 -943 l183 -164 202 65 c202 65 826 266 1417 457 173 56 362 117
420 135 58 18 400 129 760 245 360 116 916 294 1235 397 319 102 583 189 588
192 6 6 -748 542 -1354 965 -37 25 -75 46 -85 45 -11 -1 -172 -50 -359 -110z"/>
<path d="M5490 3719 c-338 -303 -620 -553 -627 -556 -6 -2 -242 70 -525 160
-282 91 -850 274 -1263 407 -1292 416 -1430 460 -1438 460 -4 0 -6 -586 -5
-1302 l3 -1303 630 -208 c807 -267 1208 -399 3400 -1120 242 -80 443 -143 448
-140 4 2 7 938 7 2079 0 1141 -3 2074 -7 2074 -5 0 -285 -248 -623 -551z"/>
<path d="M6220 2192 l0 -2080 133 43 c72 24 344 113 602 198 259 85 641 211
850 280 954 314 2090 688 2395 789 184 61 373 122 419 137 l83 25 -7 651 c-18
1701 -22 1935 -27 1940 -6 6 -172 -47 -2138 -681 -558 -180 -1025 -329 -1036
-331 -17 -4 -57 27 -176 134 -399 359 -1072 959 -1084 966 -12 7 -14 -310 -14
-2071z"/>
</g>
</svg>
